<mxfile host="app.diagrams.net" modified="2020-12-22T13:52:44.507Z" agent="5.0 (Windows NT 10.0; Win64; x64) AppleWebKit/537.36 (KHTML, like Gecko) Chrome/87.0.4280.88 Safari/537.36 Edg/87.0.664.66" etag="jAhT36ys0hFXwlPcx2zj" version="14.1.1" type="github">
  <diagram id="ppjFP_ajsQMXtEplo2P9" name="Page-1">
    <mxGraphModel dx="1635" dy="913" grid="1" gridSize="10" guides="1" tooltips="1" connect="1" arrows="1" fold="1" page="1" pageScale="1" pageWidth="1169" pageHeight="827" math="0" shadow="0">
      <root>
        <mxCell id="0" />
        <mxCell id="1" parent="0" />
        <mxCell id="RCmuUbWNnD3-luvuWC29-7" value="&lt;&lt;control&gt;&gt;&#xa;ManageRoom" style="swimlane;fontStyle=1;align=center;verticalAlign=top;childLayout=stackLayout;horizontal=1;startSize=40;horizontalStack=0;resizeParent=1;resizeParentMax=0;resizeLast=0;collapsible=1;marginBottom=0;" parent="1" vertex="1">
          <mxGeometry x="505" y="20" width="160" height="100" as="geometry" />
        </mxCell>
        <mxCell id="RCmuUbWNnD3-luvuWC29-8" value="+ field: type" style="text;strokeColor=none;fillColor=none;align=left;verticalAlign=top;spacingLeft=4;spacingRight=4;overflow=hidden;rotatable=0;points=[[0,0.5],[1,0.5]];portConstraint=eastwest;" parent="RCmuUbWNnD3-luvuWC29-7" vertex="1">
          <mxGeometry y="40" width="160" height="26" as="geometry" />
        </mxCell>
        <mxCell id="RCmuUbWNnD3-luvuWC29-9" value="" style="line;strokeWidth=1;fillColor=none;align=left;verticalAlign=middle;spacingTop=-1;spacingLeft=3;spacingRight=3;rotatable=0;labelPosition=right;points=[];portConstraint=eastwest;" parent="RCmuUbWNnD3-luvuWC29-7" vertex="1">
          <mxGeometry y="66" width="160" height="8" as="geometry" />
        </mxCell>
        <mxCell id="RCmuUbWNnD3-luvuWC29-10" value="+ method(type): type" style="text;strokeColor=none;fillColor=none;align=left;verticalAlign=top;spacingLeft=4;spacingRight=4;overflow=hidden;rotatable=0;points=[[0,0.5],[1,0.5]];portConstraint=eastwest;" parent="RCmuUbWNnD3-luvuWC29-7" vertex="1">
          <mxGeometry y="74" width="160" height="26" as="geometry" />
        </mxCell>
        <mxCell id="RCmuUbWNnD3-luvuWC29-11" value="&lt;&lt;boundary&gt;&gt;&#xa;HostManageBoundary" style="swimlane;fontStyle=1;align=center;verticalAlign=top;childLayout=stackLayout;horizontal=1;startSize=40;horizontalStack=0;resizeParent=1;resizeParentMax=0;resizeLast=0;collapsible=1;marginBottom=0;" parent="1" vertex="1">
          <mxGeometry x="120" y="20" width="200" height="170" as="geometry" />
        </mxCell>
        <mxCell id="RCmuUbWNnD3-luvuWC29-12" value="+ field: type" style="text;strokeColor=none;fillColor=none;align=left;verticalAlign=top;spacingLeft=4;spacingRight=4;overflow=hidden;rotatable=0;points=[[0,0.5],[1,0.5]];portConstraint=eastwest;" parent="RCmuUbWNnD3-luvuWC29-11" vertex="1">
          <mxGeometry y="40" width="200" height="26" as="geometry" />
        </mxCell>
        <mxCell id="RCmuUbWNnD3-luvuWC29-13" value="" style="line;strokeWidth=1;fillColor=none;align=left;verticalAlign=middle;spacingTop=-1;spacingLeft=3;spacingRight=3;rotatable=0;labelPosition=right;points=[];portConstraint=eastwest;" parent="RCmuUbWNnD3-luvuWC29-11" vertex="1">
          <mxGeometry y="66" width="200" height="8" as="geometry" />
        </mxCell>
        <mxCell id="RCmuUbWNnD3-luvuWC29-14" value="+ addRoom(Room): void&#xa;+ deleteRoom(Room): void&#xa;+ replyRequest(Reservation): bool&#xa;+ modifyRoom(Room): void&#xa;+ seePartecipants(Room): List&#xa;+ removePartecipants(Room): void&#xa;" style="text;strokeColor=none;fillColor=none;align=left;verticalAlign=top;spacingLeft=4;spacingRight=4;overflow=hidden;rotatable=0;points=[[0,0.5],[1,0.5]];portConstraint=eastwest;" parent="RCmuUbWNnD3-luvuWC29-11" vertex="1">
          <mxGeometry y="74" width="200" height="96" as="geometry" />
        </mxCell>
        <mxCell id="RCmuUbWNnD3-luvuWC29-15" value="Host" style="shape=umlActor;verticalLabelPosition=bottom;verticalAlign=top;html=1;outlineConnect=0;" parent="1" vertex="1">
          <mxGeometry x="40" y="50" width="30" height="60" as="geometry" />
        </mxCell>
        <mxCell id="KU8K0FFvpqm_8ikjK0yo-6" style="edgeStyle=orthogonalEdgeStyle;rounded=0;orthogonalLoop=1;jettySize=auto;html=1;entryX=0.219;entryY=1;entryDx=0;entryDy=0;entryPerimeter=0;endArrow=none;endFill=0;" parent="1" source="RCmuUbWNnD3-luvuWC29-21" target="RCmuUbWNnD3-luvuWC29-10" edge="1">
          <mxGeometry relative="1" as="geometry">
            <Array as="points">
              <mxPoint x="280" y="210" />
              <mxPoint x="540" y="210" />
            </Array>
          </mxGeometry>
        </mxCell>
        <mxCell id="RCmuUbWNnD3-luvuWC29-21" value="&lt;&lt;entity&gt;&gt;&#xa;Reservation" style="swimlane;fontStyle=1;align=center;verticalAlign=top;childLayout=stackLayout;horizontal=1;startSize=40;horizontalStack=0;resizeParent=1;resizeParentMax=0;resizeLast=0;collapsible=1;marginBottom=0;" parent="1" vertex="1">
          <mxGeometry x="170" y="250" width="220" height="418" as="geometry" />
        </mxCell>
        <mxCell id="RCmuUbWNnD3-luvuWC29-22" value="- ID: Integer&#xa;- date: DateTime&#xa;- startTime: Time&#xa;- endTime: Time&#xa;- reservingUser: Account&#xa;- room: Room&#xa;- roomOwner: Person&#xa;- partecipants: ArrayList&lt;Person&gt;&#xa;- isGroup: Boolean" style="text;strokeColor=none;fillColor=none;align=left;verticalAlign=top;spacingLeft=4;spacingRight=4;overflow=hidden;rotatable=0;points=[[0,0.5],[1,0.5]];portConstraint=eastwest;" parent="RCmuUbWNnD3-luvuWC29-21" vertex="1">
          <mxGeometry y="40" width="220" height="130" as="geometry" />
        </mxCell>
        <mxCell id="RCmuUbWNnD3-luvuWC29-23" value="" style="line;strokeWidth=1;fillColor=none;align=left;verticalAlign=middle;spacingTop=-1;spacingLeft=3;spacingRight=3;rotatable=0;labelPosition=right;points=[];portConstraint=eastwest;" parent="RCmuUbWNnD3-luvuWC29-21" vertex="1">
          <mxGeometry y="170" width="220" height="8" as="geometry" />
        </mxCell>
        <mxCell id="RCmuUbWNnD3-luvuWC29-24" value="+ setID(Integer): voidÂ &#xa;+ getID(): Integer&#xa;+ setDate(DateTime): void&#xa;+ getDate(): DateTime&#xa;+ setStartTime(Time): void&#xa;+ getStartTime(): Time&#xa;+ setEndTime(Time): void&#xa;+ getEndTime(): Time&#xa;+ setReservingUser(Account): void&#xa;+ getReservingUser(): Account&#xa;+ setRoom(Room): void&#xa;+ getRoom(): Room&#xa;+ setPartecipants(Person): void&#xa;+ getPartecipants(): ArrayList&lt;Person&gt;&#xa;+ setIsGroup(Boolean): void&#xa;+getIsGroup(): Boolean" style="text;strokeColor=none;fillColor=none;align=left;verticalAlign=top;spacingLeft=4;spacingRight=4;overflow=hidden;rotatable=0;points=[[0,0.5],[1,0.5]];portConstraint=eastwest;" parent="RCmuUbWNnD3-luvuWC29-21" vertex="1">
          <mxGeometry y="178" width="220" height="240" as="geometry" />
        </mxCell>
        <mxCell id="RCmuUbWNnD3-luvuWC29-26" style="edgeStyle=orthogonalEdgeStyle;rounded=0;orthogonalLoop=1;jettySize=auto;html=1;exitX=1;exitY=0.5;exitDx=0;exitDy=0;endArrow=none;endFill=0;" parent="1" source="RCmuUbWNnD3-luvuWC29-12" target="RCmuUbWNnD3-luvuWC29-8" edge="1">
          <mxGeometry relative="1" as="geometry" />
        </mxCell>
        <mxCell id="RCmuUbWNnD3-luvuWC29-27" value="&lt;&lt;boundary&gt;&gt;&#xa;GuestManageRequestBoundary" style="swimlane;fontStyle=1;align=center;verticalAlign=top;childLayout=stackLayout;horizontal=1;startSize=40;horizontalStack=0;resizeParent=1;resizeParentMax=0;resizeLast=0;collapsible=1;marginBottom=0;" parent="1" vertex="1">
          <mxGeometry x="850" y="20" width="200" height="100" as="geometry" />
        </mxCell>
        <mxCell id="RCmuUbWNnD3-luvuWC29-28" value="+ field: type" style="text;strokeColor=none;fillColor=none;align=left;verticalAlign=top;spacingLeft=4;spacingRight=4;overflow=hidden;rotatable=0;points=[[0,0.5],[1,0.5]];portConstraint=eastwest;" parent="RCmuUbWNnD3-luvuWC29-27" vertex="1">
          <mxGeometry y="40" width="200" height="26" as="geometry" />
        </mxCell>
        <mxCell id="RCmuUbWNnD3-luvuWC29-29" value="" style="line;strokeWidth=1;fillColor=none;align=left;verticalAlign=middle;spacingTop=-1;spacingLeft=3;spacingRight=3;rotatable=0;labelPosition=right;points=[];portConstraint=eastwest;" parent="RCmuUbWNnD3-luvuWC29-27" vertex="1">
          <mxGeometry y="66" width="200" height="8" as="geometry" />
        </mxCell>
        <mxCell id="RCmuUbWNnD3-luvuWC29-30" value="+ method(type): type" style="text;strokeColor=none;fillColor=none;align=left;verticalAlign=top;spacingLeft=4;spacingRight=4;overflow=hidden;rotatable=0;points=[[0,0.5],[1,0.5]];portConstraint=eastwest;" parent="RCmuUbWNnD3-luvuWC29-27" vertex="1">
          <mxGeometry y="74" width="200" height="26" as="geometry" />
        </mxCell>
        <mxCell id="RCmuUbWNnD3-luvuWC29-31" style="edgeStyle=orthogonalEdgeStyle;rounded=0;orthogonalLoop=1;jettySize=auto;html=1;exitX=1;exitY=0.5;exitDx=0;exitDy=0;endArrow=none;endFill=0;" parent="1" source="RCmuUbWNnD3-luvuWC29-8" target="RCmuUbWNnD3-luvuWC29-28" edge="1">
          <mxGeometry relative="1" as="geometry" />
        </mxCell>
        <mxCell id="RCmuUbWNnD3-luvuWC29-32" value="Guest" style="shape=umlActor;verticalLabelPosition=bottom;verticalAlign=top;html=1;" parent="1" vertex="1">
          <mxGeometry x="1090" y="50" width="30" height="60" as="geometry" />
        </mxCell>
        <mxCell id="KU8K0FFvpqm_8ikjK0yo-5" style="edgeStyle=orthogonalEdgeStyle;rounded=0;orthogonalLoop=1;jettySize=auto;html=1;entryX=0.838;entryY=0.962;entryDx=0;entryDy=0;entryPerimeter=0;endArrow=none;endFill=0;" parent="1" source="RCmuUbWNnD3-luvuWC29-33" target="RCmuUbWNnD3-luvuWC29-10" edge="1">
          <mxGeometry relative="1" as="geometry" />
        </mxCell>
        <mxCell id="RCmuUbWNnD3-luvuWC29-33" value="&lt;&lt;control&gt;&gt;&#xa;TokenHandler" style="swimlane;fontStyle=1;align=center;verticalAlign=top;childLayout=stackLayout;horizontal=1;startSize=40;horizontalStack=0;resizeParent=1;resizeParentMax=0;resizeLast=0;collapsible=1;marginBottom=0;" parent="1" vertex="1">
          <mxGeometry x="810" y="210" width="280" height="74" as="geometry" />
        </mxCell>
        <mxCell id="RCmuUbWNnD3-luvuWC29-35" value="" style="line;strokeWidth=1;fillColor=none;align=left;verticalAlign=middle;spacingTop=-1;spacingLeft=3;spacingRight=3;rotatable=0;labelPosition=right;points=[];portConstraint=eastwest;" parent="RCmuUbWNnD3-luvuWC29-33" vertex="1">
          <mxGeometry y="40" width="280" height="8" as="geometry" />
        </mxCell>
        <mxCell id="RCmuUbWNnD3-luvuWC29-36" value="+ updateToken (n Integer, user Account): void&#xa;" style="text;strokeColor=none;fillColor=none;align=left;verticalAlign=top;spacingLeft=4;spacingRight=4;overflow=hidden;rotatable=0;points=[[0,0.5],[1,0.5]];portConstraint=eastwest;" parent="RCmuUbWNnD3-luvuWC29-33" vertex="1">
          <mxGeometry y="48" width="280" height="26" as="geometry" />
        </mxCell>
        <mxCell id="jOTPd0BjUN2gH2GfwEBK-15" style="edgeStyle=orthogonalEdgeStyle;rounded=0;orthogonalLoop=1;jettySize=auto;html=1;entryX=0.497;entryY=1.005;entryDx=0;entryDy=0;entryPerimeter=0;endArrow=none;endFill=0;" parent="1" source="jOTPd0BjUN2gH2GfwEBK-9" target="RCmuUbWNnD3-luvuWC29-10" edge="1">
          <mxGeometry relative="1" as="geometry">
            <Array as="points">
              <mxPoint x="585" y="120" />
            </Array>
          </mxGeometry>
        </mxCell>
        <mxCell id="jOTPd0BjUN2gH2GfwEBK-9" value="&lt;&lt;entity&gt;&gt;&#xa;Room" style="swimlane;fontStyle=1;align=center;verticalAlign=top;childLayout=stackLayout;horizontal=1;startSize=40;horizontalStack=0;resizeParent=1;resizeParentMax=0;resizeLast=0;collapsible=1;marginBottom=0;" parent="1" vertex="1">
          <mxGeometry x="430" y="242" width="310" height="500" as="geometry" />
        </mxCell>
        <mxCell id="jOTPd0BjUN2gH2GfwEBK-10" value="- ID: Integer&#xa;- name: String&#xa;- description: String&#xa;- address: String&#xa;- numPartecipants: Integer&#xa;- numAvailableSeats: Integer&#xa;- filters: ArrayList&lt;Boolean&gt;&#xa;- date: DateTime&#xa;- startTime: Time?&#xa;- endTime: Time?" style="text;strokeColor=none;fillColor=none;align=left;verticalAlign=top;spacingLeft=4;spacingRight=4;overflow=hidden;rotatable=0;points=[[0,0.5],[1,0.5]];portConstraint=eastwest;" parent="jOTPd0BjUN2gH2GfwEBK-9" vertex="1">
          <mxGeometry y="40" width="310" height="150" as="geometry" />
        </mxCell>
        <mxCell id="jOTPd0BjUN2gH2GfwEBK-11" value="" style="line;strokeWidth=1;fillColor=none;align=left;verticalAlign=middle;spacingTop=-1;spacingLeft=3;spacingRight=3;rotatable=0;labelPosition=right;points=[];portConstraint=eastwest;" parent="jOTPd0BjUN2gH2GfwEBK-9" vertex="1">
          <mxGeometry y="190" width="310" height="8" as="geometry" />
        </mxCell>
        <mxCell id="jOTPd0BjUN2gH2GfwEBK-12" value="+ isAvailable (numPart): Boolean&#xa;+ setID(Integer): voidÂ &#xa;+ getID(): Integer&#xa;+ setName(String): void&#xa;+ getName(): String&#xa;+ setDescription(String): void&#xa;+ getDescription(): String&#xa;+ setAddress(String): void&#xa;+ getAddress(): String&#xa;+ setNumPartecipants(Integer): void&#xa;+ getNumPartecipants(): Integer&#xa;+ setNumAvailableSeats(Integer): void&#xa;+ getNumAvailableSeats(): Integer&#xa;+ setFilters(ArrayList&lt;Boolean&gt;): void&#xa;+ getFilters(): ArrayList&lt;Boolean&gt;&#xa;+ setDate(DateTime): void&#xa;+ getDate(): DateTime&#xa;+ setStartTime(?): void&#xa;+ getStartTime(): ?&#xa;+ setEndTime(?): void&#xa;+ getEndTime(): ?&#xa;Â &#xa;&#xa;Â " style="text;strokeColor=none;fillColor=none;align=left;verticalAlign=top;spacingLeft=4;spacingRight=4;overflow=hidden;rotatable=0;points=[[0,0.5],[1,0.5]];portConstraint=eastwest;" parent="jOTPd0BjUN2gH2GfwEBK-9" vertex="1">
          <mxGeometry y="198" width="310" height="302" as="geometry" />
        </mxCell>
        <mxCell id="jOTPd0BjUN2gH2GfwEBK-22" style="edgeStyle=orthogonalEdgeStyle;rounded=0;orthogonalLoop=1;jettySize=auto;html=1;entryX=0.5;entryY=1;entryDx=0;entryDy=0;entryPerimeter=0;endArrow=none;endFill=0;" parent="1" source="jOTPd0BjUN2gH2GfwEBK-18" target="RCmuUbWNnD3-luvuWC29-36" edge="1">
          <mxGeometry relative="1" as="geometry" />
        </mxCell>
        <mxCell id="jOTPd0BjUN2gH2GfwEBK-18" value="&lt;&lt;entity&gt;&gt;&#xa;Account" style="swimlane;fontStyle=1;align=center;verticalAlign=top;childLayout=stackLayout;horizontal=1;startSize=40;horizontalStack=0;resizeParent=1;resizeParentMax=0;resizeLast=0;collapsible=1;marginBottom=0;" parent="1" vertex="1">
          <mxGeometry x="820" y="360" width="260" height="450" as="geometry" />
        </mxCell>
        <mxCell id="jOTPd0BjUN2gH2GfwEBK-19" value="- name: String&#xa;- surname: String&#xa;- CF: String&#xa;- email: String&#xa;- password: String&#xa;- dateBirth: DateTime&#xa;- cityBirth: String&#xa;- numToken: Integer&#xa;- listReservations: ArrayList&lt;Reservation&gt;" style="text;strokeColor=none;fillColor=none;align=left;verticalAlign=top;spacingLeft=4;spacingRight=4;overflow=hidden;rotatable=0;points=[[0,0.5],[1,0.5]];portConstraint=eastwest;" parent="jOTPd0BjUN2gH2GfwEBK-18" vertex="1">
          <mxGeometry y="40" width="260" height="140" as="geometry" />
        </mxCell>
        <mxCell id="jOTPd0BjUN2gH2GfwEBK-20" value="" style="line;strokeWidth=1;fillColor=none;align=left;verticalAlign=middle;spacingTop=-1;spacingLeft=3;spacingRight=3;rotatable=0;labelPosition=right;points=[];portConstraint=eastwest;" parent="jOTPd0BjUN2gH2GfwEBK-18" vertex="1">
          <mxGeometry y="180" width="260" height="8" as="geometry" />
        </mxCell>
        <mxCell id="jOTPd0BjUN2gH2GfwEBK-21" value="+ setName(String). void&#xa;+ getName(): String&#xa;+ setSurname(String): void&#xa;+ getSurname(): String&#xa;+ setCF(String): void&#xa;+ getCF(): String&#xa;+ setEmail(String): void&#xa;+ getEmail(): String&#xa;+ setPassword(String): voif&#xa;+ getPassword(): String&#xa;+ setDateBirth(DateTime): void&#xa;+ getDateBirth(): DateTime&#xa;+ setCityBirth(String): void&#xa;+ getCityBirth(): String&#xa;+ setNumToke(Integer): void&#xa;+ getNumToken(): Integer&#xa;+ setListReservations(Reservation): void&#xa;+ getListReservations: ArrayList&lt;Reservation&gt;&#xa;&#xa;" style="text;strokeColor=none;fillColor=none;align=left;verticalAlign=top;spacingLeft=4;spacingRight=4;overflow=hidden;rotatable=0;points=[[0,0.5],[1,0.5]];portConstraint=eastwest;" parent="jOTPd0BjUN2gH2GfwEBK-18" vertex="1">
          <mxGeometry y="188" width="260" height="262" as="geometry" />
        </mxCell>
        <mxCell id="KU8K0FFvpqm_8ikjK0yo-7" style="edgeStyle=orthogonalEdgeStyle;rounded=0;orthogonalLoop=1;jettySize=auto;html=1;exitX=0.5;exitY=0;exitDx=0;exitDy=0;entryX=0.461;entryY=1.001;entryDx=0;entryDy=0;entryPerimeter=0;endArrow=none;endFill=0;" parent="1" source="KU8K0FFvpqm_8ikjK0yo-1" target="RCmuUbWNnD3-luvuWC29-24" edge="1">
          <mxGeometry relative="1" as="geometry" />
        </mxCell>
        <mxCell id="KU8K0FFvpqm_8ikjK0yo-1" value="&lt;&lt;entity&gt;&gt;&#xa;Person" style="swimlane;fontStyle=1;align=center;verticalAlign=top;childLayout=stackLayout;horizontal=1;startSize=40;horizontalStack=0;resizeParent=1;resizeParentMax=0;resizeLast=0;collapsible=1;marginBottom=0;" parent="1" vertex="1">
          <mxGeometry x="170" y="690" width="200" height="380" as="geometry" />
        </mxCell>
        <mxCell id="KU8K0FFvpqm_8ikjK0yo-2" value="- ID: Integer&#xa;- username: String&#xa;- studyGrade: String&#xa;- school: String&#xa;- account: Account&#xa;- hostRating: Float&#xa;- guestRating: Float&#xa;- reviews: ArrayList&lt;Review&gt;" style="text;strokeColor=none;fillColor=none;align=left;verticalAlign=top;spacingLeft=4;spacingRight=4;overflow=hidden;rotatable=0;points=[[0,0.5],[1,0.5]];portConstraint=eastwest;" parent="KU8K0FFvpqm_8ikjK0yo-1" vertex="1">
          <mxGeometry y="40" width="200" height="120" as="geometry" />
        </mxCell>
        <mxCell id="KU8K0FFvpqm_8ikjK0yo-3" value="" style="line;strokeWidth=1;fillColor=none;align=left;verticalAlign=middle;spacingTop=-1;spacingLeft=3;spacingRight=3;rotatable=0;labelPosition=right;points=[];portConstraint=eastwest;" parent="KU8K0FFvpqm_8ikjK0yo-1" vertex="1">
          <mxGeometry y="160" width="200" height="8" as="geometry" />
        </mxCell>
        <mxCell id="KU8K0FFvpqm_8ikjK0yo-4" value="+ setID(Integer): void&#xa;+ getID(): Integer&#xa;+ setUsername(String): void&#xa;+ getUsername(): String&#xa;+ setSchool(String): void&#xa;+ getSchool(): String&#xa;+ setAccount(Account): void&#xa;+ getAccount(): Account&#xa;+ setHostRating(Float): void&#xa;+ getHostRating(): Float&#xa;+ setGuestRating(Float): void&#xa;+ getGuestRating(): Float&#xa;+ setReviews(Review): void&#xa;+ getReviews(): ArrayList&lt;Review&gt;" style="text;strokeColor=none;fillColor=none;align=left;verticalAlign=top;spacingLeft=4;spacingRight=4;overflow=hidden;rotatable=0;points=[[0,0.5],[1,0.5]];portConstraint=eastwest;" parent="KU8K0FFvpqm_8ikjK0yo-1" vertex="1">
          <mxGeometry y="168" width="200" height="212" as="geometry" />
        </mxCell>
      </root>
    </mxGraphModel>
  </diagram>
</mxfile>
